<svg xmlns="http://www.w3.org/2000/svg" viewBox="0 0 64 64">
  <path d="M50 24.5a13.5 13.5 0 0 0-26.4-3.5 10 10 0 0 0-3.6 19c-.3.05-.6.08-.9.08a10 10 0 0 0 0 20h30.9a13.5 13.5 0 0 0 0-27c0-.2-.05-.4-.05-.6a13.5 13.5 0 0 0-1.8 12.02z" fill="#f44336" opacity="0.3"/>
  <path d="M10.2 42.2C4.93 42.2 0 38.056 0 32c0-6.27 4.143-10.2 10.2-10.2h13.6C29.07 21.8 34 25.944 34 32c0 6.27-4.143 10.2-10.2 10.2zm13.176-2.23c4.23 0 7.183-3.953 7.183-8.183s-2.953-8.183-7.183-8.183H10.837c-4.23 0-7.183 3.953-7.183 8.183S6.608 39.97 10.837 39.97z" fill="#e30613" transform="translate(15, 8)"/>
</svg>
